# xmcd
#
# Track frame offsets: 
#        150
#        17620
#        35037
#        57017
#
# Disc length: 1032 seconds
#
# Revision: 3
# Processed by: cddbd v1.5.2PL0 Copyright (c) Steve Scherf et al.
# Submitted via: ExactAudioCopy v0.99pb5
#
DISCID=29040604
DTITLE=Scarface - Game Over (Single)
DYEAR=1997
DGENRE=Rap
TTITLE0=Game Over (The Black Bomber Mix) (feat. Dr. Dre, Ice Cube and To
TTITLE0=o Short)
TTITLE1=Game Over (The Black Bomber Instrumental)
TTITLE2=Game Over (feat. Dr. Dre, Ice Cube and Too Short)
TTITLE3=For Real
EXTD=
EXTT0=
EXTT1=
EXTT2=
EXTT3=
PLAYORDER=
